<?xml version="1.0" standalone="no"?>
<!DOCTYPE svg PUBLIC "-//W3C//DTD SVG 20010904//EN"
 "http://www.w3.org/TR/2001/REC-SVG-20010904/DTD/svg10.dtd">
<svg version="1.0" xmlns="http://www.w3.org/2000/svg"
 width="1000.000000pt" height="1000.000000pt" viewBox="0 0 1000.000000 1000.000000"
 preserveAspectRatio="xMidYMid meet">
<metadata>
Created by potrace 1.14, written by Peter Selinger 2001-2017
</metadata>
<g transform="translate(0.000000,1000.000000) scale(0.100000,-0.100000)"
fill="#000000" stroke="none">
<path d="M0 5000 l0 -5000 5000 0 5000 0 0 5000 0 5000 -5000 0 -5000 0 0
-5000z m3820 955 l555 -555 200 200 200 200 587 0 c324 0 588 -2 588 -5 0 -3
-121 -127 -269 -275 l-269 -270 -204 0 -204 0 -873 -875 c-480 -481 -875 -875
-877 -875 -2 0 -4 174 -4 388 l0 387 180 180 c98 98 178 181 176 183 -2 2 -80
-18 -172 -43 -93 -26 -214 -58 -269 -72 -55 -13 -127 -32 -160 -43 -87 -27
-125 -33 -125 -21 0 6 25 55 57 109 31 53 72 125 92 159 20 34 78 135 130 225
l93 164 172 47 c94 26 204 55 243 64 40 10 73 20 73 23 0 3 -111 115 -245 250
l-245 244 0 383 c0 211 3 383 7 383 5 0 258 -250 563 -555z m2920 169 l0 -387
-167 -167 c-220 -219 -209 -203 -126 -179 37 11 79 22 93 25 14 4 90 24 170
46 257 70 404 107 408 104 2 -3 -40 -80 -93 -173 -54 -92 -106 -184 -117 -203
-11 -19 -24 -39 -28 -45 -4 -5 -21 -35 -37 -65 -17 -30 -47 -83 -67 -117 -41
-69 -16 -58 -276 -128 -74 -20 -159 -43 -187 -51 -29 -8 -53 -18 -53 -22 0 -4
108 -115 240 -246 l240 -240 0 -390 0 -391 -559 559 c-519 519 -560 558 -578
545 -11 -8 -102 -97 -204 -198 l-184 -185 -588 0 c-323 -1 -587 1 -587 4 0 3
123 128 272 277 l273 273 205 0 205 0 865 869 c476 479 868 870 873 871 4 0 7
-174 7 -386z"/>
</g>
</svg>
